<?xml version="1.0" encoding="UTF-8"?>
<svg width="60px" height="47px" viewBox="0 0 60 47" version="1.1" xmlns="http://www.w3.org/2000/svg" xmlns:xlink="http://www.w3.org/1999/xlink">
    <title>Switch</title>
    <g id="switch-camera-icon" stroke="none" stroke-width="1" fill="none" fill-rule="evenodd">
        <g id="switch-camera" transform="translate(-753.000000, -917.000000)" fill="#FFFFFF">
            <g id="Group-24" transform="translate(753.000000, 917.000000)">
                <g id="Group-23" transform="translate(18.000000, 13.000000)" stroke="#FFFFFF">
                    <path d="M6.21935659,15.4262251 C6.86119329,15.4262251 7.38150475,15.948638 7.38150475,16.593067 C7.38150475,17.1730531 6.96005247,17.6542062 6.40786306,17.744637 L6.21935659,17.759909 L4.52087707,17.7597145 L4.65894601,17.9478423 C6.31122963,20.093073 8.82252056,21.4731472 11.6054697,21.6476277 L12.0470547,21.6650943 C16.9731157,21.7455163 21.1372324,17.8254842 21.6414924,12.7158217 L21.6763097,12.2470932 L21.6761504,12.1897214 C21.6635678,11.5454162 22.173579,11.0128623 22.8152923,11.0002288 C23.4570057,10.9875954 23.9874174,11.4996665 24,12.1439717 L23.9964165,12.4041484 C23.6256079,18.9593217 18.3453297,24.1019112 12.0090679,23.9984665 C8.32345814,23.9376642 4.97055157,22.1768208 2.80819953,19.3597374 L2.2666545,21.0156165 C2.06649521,21.6279079 1.4098705,21.9613516 0.800042156,21.7603839 C0.251196642,21.579513 -0.0726908509,21.0274117 0.0139362213,20.4724397 L0.0582706909,20.2878481 L1.40324298,16.1755924 L1.48053011,16.0131437 L1.56673033,15.882902 L1.68762724,15.7479324 L1.82137807,15.6380682 C1.96184292,15.5369376 2.12812536,15.467018 2.31164788,15.4393838 L2.48418236,15.4259196 L6.21935659,15.4262251 Z" id="Path" fill-rule="nonzero"></path>
                    <path d="M11.9745033,0.00153353863 C15.6550635,0.0623358397 19.0033762,1.82317921 21.1627656,4.64026256 L21.7363407,2.87970623 C21.9360398,2.26735352 22.5916636,1.93370853 23.2007174,2.13448929 C23.7488658,2.31519197 24.0724772,2.86719392 23.9861373,3.42219241 L23.9419197,3.60679768 L22.5840693,7.77047871 L22.5401046,7.88489972 L22.5401046,7.88489972 L22.4436876,8.05961764 L22.4436876,8.05961764 L22.3865651,8.13755907 L22.3865651,8.13755907 L22.2875445,8.24654111 L22.2875445,8.24654111 L22.1232697,8.38061324 L22.1232697,8.38061324 L21.999835,8.45081999 L21.999835,8.45081999 C21.9176203,8.49391559 21.8278139,8.52618864 21.7328385,8.54693722 C21.6530922,8.564144 21.5704046,8.57369839 21.4866933,8.57407877 L17.5957386,8.57377494 C16.9547813,8.57377494 16.4351827,8.05136201 16.4351827,7.40693299 C16.4351827,6.82694688 16.8560576,6.34579379 17.4074904,6.25536303 L17.5957386,6.24009104 L19.4503069,6.23834077 L19.3145549,6.05215768 C17.664535,3.90692704 15.1566848,2.52685279 12.3775486,2.3523723 L11.9365686,2.33490575 C7.01725674,2.25448368 2.85884537,6.17451585 2.35527619,11.2841783 L2.32050662,11.7529068 L2.32066573,11.8102786 C2.3332311,12.4545838 1.82391863,12.9871377 1.18308449,12.9997712 C0.542250343,13.0124046 0.0125653754,12.5003335 0,11.8560283 L0.0035785486,11.5958516 C0.373879139,5.04067832 5.64692285,-0.101911247 11.9745033,0.00153353863 Z" id="Path"></path>
                </g>
                <path d="M33.8296303,3.94351218e-13 C37.1342758,3.94351218e-13 40.1268564,1.68805336 41.8510009,4.34227282 L41.9545455,4.51381074 L50.4545455,4.51832907 C55.4971453,4.51832907 59.6264918,8.40509806 59.976033,13.3291908 L60,14.0068201 L60,32.0801364 C60,33.5773789 58.7789584,34.7911338 57.2727273,34.7911338 C55.9171193,34.7911338 54.7925148,33.8079924 54.5811499,32.5198743 L54.5454545,32.0801364 L54.5454545,14.0068201 C54.5454545,11.9337151 52.9848333,10.2229374 50.9674372,9.97200772 L50.4542108,9.94032394 L38.3293669,9.93884487 L37.6870171,8.13086985 C37.1715146,6.67992288 35.8711967,5.64649174 34.345701,5.45431497 L33.8296303,5.42199488 L25.4168765,5.42199488 C23.8467415,5.42199488 22.4413059,6.31153841 21.7587118,7.66481361 L21.5587179,8.13249649 L20.9165318,9.94167406 L9.54545455,9.94032396 C7.45990374,9.94032396 5.73885555,11.491632 5.48641944,13.4967275 L5.45454545,14.0068201 L5.45454545,36.5984655 C5.45454545,38.6715705 7.01516666,40.3823482 9.0322996,40.6332779 L9.54545455,40.6649616 L55,40.6649616 C56.5062311,40.6649616 57.7272727,41.8787165 57.7272727,43.3759591 C57.7272727,44.7234774 56.738229,45.8413707 55.4423778,46.0514741 L55,46.0869565 L9.54545455,46.0869565 C4.50285466,46.0869565 0.373508241,42.2001875 0.0239669649,37.2760948 L0,36.5984655 L0,14.0068201 C0,8.99431247 3.91010294,4.88960836 8.86404224,4.54215303 L9.5457803,4.51832909 L17.2863636,4.51832907 L17.3935103,4.34522691 C18.9842224,1.89456792 21.65639,0.265760586 24.6596091,0.0296757829 L25.4168765,3.94351218e-13 L33.8296303,3.94351218e-13 Z" id="Path" fill-rule="nonzero"></path>
            </g>
        </g>
    </g>
</svg>